<svg width="116" height="20" viewBox="0 0 116 20" fill="none" xmlns="http://www.w3.org/2000/svg">
<g clip-path="url(#clip0_2001_1180)">
<path d="M12.0286 6.12019L12.0287 6.12039C12.3069 6.81968 12.9506 7.32743 13.7231 7.39221L18.9833 7.83333C18.9864 7.83829 18.9907 7.84628 18.9943 7.85792C19.0015 7.88128 19.0008 7.90196 18.9978 7.91403C18.9965 7.91925 18.995 7.92275 18.9933 7.92547C18.9919 7.92786 18.9884 7.93324 18.9796 7.94118L14.9674 11.5362L14.9674 11.5362C14.4026 12.0424 14.1695 12.8189 14.3356 13.5469C14.3356 13.5469 14.3356 13.5469 14.3356 13.5469L15.5614 18.9222C15.5657 18.941 15.5657 18.9531 15.5652 18.9597C15.565 18.963 15.5645 18.9659 15.564 18.9685C15.5634 18.9711 15.5627 18.9735 15.5619 18.9755C15.5601 18.9802 15.5575 18.9847 15.5544 18.9889L11.063 16.1192C10.4126 15.7037 9.5874 15.7036 8.93707 16.1192C8.93706 16.1192 8.93705 16.1192 8.93704 16.1192L4.44559 18.9889C4.44246 18.9847 4.43987 18.9802 4.4381 18.9755C4.43654 18.9714 4.43524 18.9664 4.43476 18.9597C4.4343 18.9531 4.43431 18.941 4.4386 18.9222L5.66438 13.5469C5.66439 13.5469 5.66439 13.5469 5.66439 13.5469C5.8304 12.819 5.59757 12.0425 5.03266 11.5362L5.03258 11.5362L1.02039 7.94118C1.02039 7.94118 1.02039 7.94118 1.02039 7.94118C1.01153 7.93324 1.00802 7.92786 1.0066 7.92547C1.00499 7.92275 1.00341 7.91925 1.00214 7.91404C0.999198 7.90197 0.998406 7.88129 1.00566 7.85792C1.00928 7.84628 1.01351 7.83829 1.01669 7.83333L6.27692 7.39221C7.04941 7.32744 7.69317 6.81969 7.9713 6.12019L10 1.01814L12.0286 6.12019Z" stroke="#F89531" stroke-width="2"/>
<path d="M36.0286 6.12019L36.0287 6.12039C36.3069 6.81968 36.9506 7.32743 37.7231 7.39221L42.9833 7.83333C42.9864 7.83829 42.9907 7.84628 42.9943 7.85792C43.0015 7.88128 43.0008 7.90196 42.9978 7.91403C42.9965 7.91925 42.995 7.92275 42.9933 7.92547C42.9919 7.92786 42.9884 7.93324 42.9796 7.94118L38.9674 11.5362L38.9674 11.5362C38.4026 12.0424 38.1695 12.8189 38.3356 13.5469C38.3356 13.5469 38.3356 13.5469 38.3356 13.5469L39.5614 18.9222C39.5657 18.941 39.5657 18.9531 39.5652 18.9597C39.565 18.963 39.5645 18.9659 39.564 18.9685C39.5634 18.9711 39.5627 18.9735 39.5619 18.9755C39.5601 18.9802 39.5575 18.9847 39.5544 18.9889L35.063 16.1192C34.4126 15.7037 33.5874 15.7036 32.9371 16.1192C32.9371 16.1192 32.937 16.1192 32.937 16.1192L28.4456 18.9889C28.4425 18.9847 28.4399 18.9802 28.4381 18.9755C28.4365 18.9714 28.4352 18.9664 28.4348 18.9597C28.4343 18.9531 28.4343 18.941 28.4386 18.9222L29.6644 13.5469C29.6644 13.5469 29.6644 13.5469 29.6644 13.5469C29.8304 12.819 29.5976 12.0425 29.0327 11.5362L29.0326 11.5362L25.0204 7.94118C25.0204 7.94118 25.0204 7.94118 25.0204 7.94118C25.0115 7.93324 25.008 7.92786 25.0066 7.92547C25.005 7.92275 25.0034 7.91925 25.0021 7.91404C24.9992 7.90197 24.9984 7.88129 25.0057 7.85792C25.0093 7.84628 25.0135 7.83829 25.0167 7.83333L30.2769 7.39221C31.0494 7.32744 31.6932 6.81969 31.9713 6.12019L34 1.01814L36.0286 6.12019Z" stroke="#F89531" stroke-width="2"/>
<path d="M60.0286 6.12019L60.0287 6.12039C60.3069 6.81968 60.9506 7.32743 61.7231 7.39221L66.9833 7.83333C66.9864 7.83829 66.9907 7.84628 66.9943 7.85792C67.0015 7.88128 67.0008 7.90196 66.9978 7.91403C66.9965 7.91925 66.995 7.92275 66.9933 7.92547C66.9919 7.92786 66.9884 7.93324 66.9796 7.94118L62.9674 11.5362L62.9674 11.5362C62.4026 12.0424 62.1695 12.8189 62.3356 13.5469C62.3356 13.5469 62.3356 13.5469 62.3356 13.5469L63.5614 18.9222C63.5657 18.941 63.5657 18.9531 63.5652 18.9597C63.565 18.963 63.5645 18.9659 63.564 18.9685C63.5634 18.9711 63.5627 18.9735 63.5619 18.9755C63.5601 18.9802 63.5575 18.9847 63.5544 18.9889L59.063 16.1192C58.4126 15.7037 57.5874 15.7036 56.9371 16.1192C56.9371 16.1192 56.937 16.1192 56.937 16.1192L52.4456 18.9889C52.4425 18.9847 52.4399 18.9802 52.4381 18.9755C52.4365 18.9714 52.4352 18.9664 52.4348 18.9597C52.4343 18.9531 52.4343 18.941 52.4386 18.9222L53.6644 13.5469C53.6644 13.5469 53.6644 13.5469 53.6644 13.5469C53.8304 12.819 53.5976 12.0425 53.0327 11.5362L53.0326 11.5362L49.0204 7.94118C49.0204 7.94118 49.0204 7.94118 49.0204 7.94118C49.0115 7.93324 49.008 7.92786 49.0066 7.92547C49.005 7.92275 49.0034 7.91925 49.0021 7.91404C48.9992 7.90197 48.9984 7.88129 49.0057 7.85792C49.0093 7.84628 49.0135 7.83829 49.0167 7.83333L54.2769 7.39221C55.0494 7.32744 55.6932 6.81969 55.9713 6.12019L58 1.01814L60.0286 6.12019Z" stroke="#F89531" stroke-width="2"/>
<path d="M84.0286 6.12019L84.0287 6.12039C84.3069 6.81968 84.9506 7.32743 85.7231 7.39221L90.9833 7.83333C90.9864 7.83829 90.9907 7.84628 90.9943 7.85792C91.0015 7.88128 91.0008 7.90196 90.9978 7.91403C90.9965 7.91925 90.995 7.92275 90.9933 7.92547C90.9919 7.92786 90.9884 7.93324 90.9796 7.94118L86.9674 11.5362L86.9674 11.5362C86.4026 12.0424 86.1695 12.8189 86.3356 13.5469C86.3356 13.5469 86.3356 13.5469 86.3356 13.5469L87.5614 18.9222C87.5657 18.941 87.5657 18.9531 87.5652 18.9597C87.565 18.963 87.5645 18.9659 87.564 18.9685C87.5634 18.9711 87.5627 18.9735 87.5619 18.9755C87.5601 18.9802 87.5575 18.9847 87.5544 18.9889L83.063 16.1192C82.4126 15.7037 81.5874 15.7036 80.9371 16.1192C80.9371 16.1192 80.937 16.1192 80.937 16.1192L76.4456 18.9889C76.4425 18.9847 76.4399 18.9802 76.4381 18.9755C76.4365 18.9714 76.4352 18.9664 76.4348 18.9597C76.4343 18.9531 76.4343 18.941 76.4386 18.9222L77.6644 13.5469C77.6644 13.5469 77.6644 13.5469 77.6644 13.5469C77.8304 12.819 77.5976 12.0425 77.0327 11.5362L77.0326 11.5362L73.0204 7.94118C73.0204 7.94118 73.0204 7.94118 73.0204 7.94118C73.0115 7.93324 73.008 7.92786 73.0066 7.92547C73.005 7.92275 73.0034 7.91925 73.0021 7.91404C72.9992 7.90197 72.9984 7.88129 73.0057 7.85792C73.0093 7.84628 73.0135 7.83829 73.0167 7.83333L78.2769 7.39221C79.0494 7.32744 79.6932 6.81969 79.9713 6.12019L82 1.01814L84.0286 6.12019Z" stroke="#F89531" stroke-width="2"/>
<path d="M108.029 6.12019L108.029 6.12039C108.307 6.81968 108.951 7.32743 109.723 7.39221L114.983 7.83333C114.986 7.83829 114.991 7.84628 114.994 7.85792C115.002 7.88128 115.001 7.90196 114.998 7.91403C114.997 7.91925 114.995 7.92275 114.993 7.92547C114.992 7.92786 114.988 7.93324 114.98 7.94118L110.967 11.5362L110.967 11.5362C110.403 12.0424 110.17 12.8189 110.336 13.5469C110.336 13.5469 110.336 13.5469 110.336 13.5469L111.561 18.9222C111.566 18.941 111.566 18.9531 111.565 18.9597C111.565 18.963 111.565 18.9659 111.564 18.9685C111.563 18.9711 111.563 18.9735 111.562 18.9755C111.56 18.9802 111.558 18.9847 111.554 18.9889L107.063 16.1192C106.413 15.7037 105.587 15.7036 104.937 16.1192C104.937 16.1192 104.937 16.1192 104.937 16.1192L100.446 18.9889C100.442 18.9847 100.44 18.9802 100.438 18.9755C100.437 18.9714 100.435 18.9664 100.435 18.9597C100.434 18.9531 100.434 18.941 100.439 18.9222L101.664 13.5469C101.664 13.5469 101.664 13.5469 101.664 13.5469C101.83 12.819 101.598 12.0425 101.033 11.5362L101.033 11.5362L97.0204 7.94118C97.0204 7.94118 97.0204 7.94118 97.0204 7.94118C97.0115 7.93324 97.008 7.92786 97.0066 7.92547C97.005 7.92275 97.0034 7.91925 97.0021 7.91404C96.9992 7.90197 96.9984 7.88129 97.0057 7.85792C97.0093 7.84628 97.0135 7.83829 97.0167 7.83333L102.277 7.39221C103.049 7.32744 103.693 6.81969 103.971 6.12019L106 1.01814L108.029 6.12019Z" stroke="#F89531" stroke-width="2"/>
</g>
<defs>
<clipPath id="clip0_2001_1180">
<rect width="116" height="20" fill="white"/>
</clipPath>
</defs>
</svg>
