<svg width="116" height="20" viewBox="0 0 116 20" fill="none" xmlns="http://www.w3.org/2000/svg">
<g clip-path="url(#clip0_2001_21556)">
<path d="M9.07088 0.648363C9.41462 -0.216122 10.5854 -0.216121 10.9291 0.648365L12.9579 5.75071C13.1029 6.11516 13.4306 6.36417 13.8067 6.39571L19.0727 6.83732C19.9649 6.91215 20.3267 8.07684 19.6469 8.68594L15.6348 12.2809C15.3482 12.5378 15.223 12.9407 15.3106 13.3246L16.5363 18.6999C16.744 19.6106 15.7969 20.3305 15.033 19.8424L10.5245 16.9619C10.2025 16.7561 9.7975 16.7561 9.47548 16.9619L4.96699 19.8424C4.20311 20.3305 3.25596 19.6106 3.46363 18.6999L4.68942 13.3246C4.77698 12.9407 4.65182 12.5378 4.36526 12.2809L0.353062 8.68594C-0.326718 8.07684 0.0350679 6.91215 0.927291 6.83732L6.19336 6.39571C6.5695 6.36417 6.89716 6.11516 7.04207 5.75071L9.07088 0.648363Z" fill="#F89531"/>
<path d="M33.0709 0.648363C33.4146 -0.216122 34.5854 -0.216121 34.9291 0.648365L36.9579 5.75071C37.1029 6.11516 37.4306 6.36417 37.8067 6.39571L43.0727 6.83732C43.9649 6.91215 44.3267 8.07684 43.6469 8.68594L39.6348 12.2809C39.3482 12.5378 39.223 12.9407 39.3106 13.3246L40.5363 18.6999C40.744 19.6106 39.7969 20.3305 39.033 19.8424L34.5245 16.9619C34.2025 16.7561 33.7975 16.7561 33.4755 16.9619L28.967 19.8424C28.2031 20.3305 27.256 19.6106 27.4636 18.6999L28.6894 13.3246C28.777 12.9407 28.6518 12.5378 28.3653 12.2809L24.3531 8.68594C23.6733 8.07684 24.0351 6.91215 24.9273 6.83732L30.1934 6.39571C30.5695 6.36417 30.8972 6.11516 31.0421 5.75071L33.0709 0.648363Z" fill="#F89531"/>
<path d="M57.0709 0.648363C57.4146 -0.216122 58.5854 -0.216121 58.9291 0.648365L60.9579 5.75071C61.1029 6.11516 61.4306 6.36417 61.8067 6.39571L67.0727 6.83732C67.9649 6.91215 68.3267 8.07684 67.6469 8.68594L63.6348 12.2809C63.3482 12.5378 63.223 12.9407 63.3106 13.3246L64.5363 18.6999C64.744 19.6106 63.7969 20.3305 63.033 19.8424L58.5245 16.9619C58.2025 16.7561 57.7975 16.7561 57.4755 16.9619L52.967 19.8424C52.2031 20.3305 51.256 19.6106 51.4636 18.6999L52.6894 13.3246C52.777 12.9407 52.6518 12.5378 52.3653 12.2809L48.3531 8.68594C47.6733 8.07684 48.0351 6.91215 48.9273 6.83732L54.1934 6.39571C54.5695 6.36417 54.8972 6.11516 55.0421 5.75071L57.0709 0.648363Z" fill="#F89531"/>
<path d="M81.0709 0.648363C81.4146 -0.216122 82.5854 -0.216121 82.9291 0.648365L84.9579 5.75071C85.1029 6.11516 85.4306 6.36417 85.8067 6.39571L91.0727 6.83732C91.9649 6.91215 92.3267 8.07684 91.6469 8.68594L87.6348 12.2809C87.3482 12.5378 87.223 12.9407 87.3106 13.3246L88.5363 18.6999C88.744 19.6106 87.7969 20.3305 87.033 19.8424L82.5245 16.9619C82.2025 16.7561 81.7975 16.7561 81.4755 16.9619L76.967 19.8424C76.2031 20.3305 75.256 19.6106 75.4636 18.6999L76.6894 13.3246C76.777 12.9407 76.6518 12.5378 76.3653 12.2809L72.3531 8.68594C71.6733 8.07684 72.0351 6.91215 72.9273 6.83732L78.1934 6.39571C78.5695 6.36417 78.8972 6.11516 79.0421 5.75071L81.0709 0.648363Z" fill="#F89531"/>
<path d="M105.071 0.648363C105.415 -0.216122 106.585 -0.216121 106.929 0.648365L108.958 5.75071C109.103 6.11516 109.431 6.36417 109.807 6.39571L115.073 6.83732C115.965 6.91215 116.327 8.07684 115.647 8.68594L111.635 12.2809C111.348 12.5378 111.223 12.9407 111.311 13.3246L112.536 18.6999C112.744 19.6106 111.797 20.3305 111.033 19.8424L106.525 16.9619C106.202 16.7561 105.797 16.7561 105.475 16.9619L100.967 19.8424C100.203 20.3305 99.256 19.6106 99.4636 18.6999L100.689 13.3246C100.777 12.9407 100.652 12.5378 100.365 12.2809L96.3531 8.68594C95.6733 8.07684 96.0351 6.91215 96.9273 6.83732L102.193 6.39571C102.569 6.36417 102.897 6.11516 103.042 5.75071L105.071 0.648363Z" fill="#F89531"/>
</g>
<defs>
<clipPath id="clip0_2001_21556">
<rect width="116" height="20" fill="white"/>
</clipPath>
</defs>
</svg>
