<svg xmlns="http://www.w3.org/2000/svg" width="29" height="29" fill="none">
	<path fill="#E94B35"
		d="M14.4706 28.9322c7.9919 0 14.4706-6.4767 14.4706-14.4661C28.9412 6.47669 22.4625 0 14.4706 0 6.47871 0 0 6.47669 0 14.4661c0 7.9894 6.47871 14.4661 14.4706 14.4661Z" />
	<path fill="#F2C500" fill-rule="evenodd"
		d="m17.5828 9.80144-.6275.31706.1199-.67156-.5077-.4757.7016-.098.3137-.611.3137.611.7015.098-.5076.4757.1198.67156-.6274-.31706Zm-.3113-3.23521-.6275.31711.1198-.6717-.5076-.47561.7015-.098.3138-.611.3137.611.7015.098-.5076.47561.1198.6717-.6274-.31711ZM9.64993 11.1117l-2.98001 1.506.56911-3.18966-2.41091-2.25891 3.33181-.46539 1.49-2.90201 1.48997 2.90201 3.3317.46539-2.4108 2.25891.5691 3.18966-2.97997-1.506Zm5.43397 1.5032-.6275.3171.1199-.6716-.5077-.4756.7016-.098.3137-.611.3137.611.7015.098-.5076.4756.1199.6716-.6275-.3171Zm-.4919-8.20217-.6274.31711.1198-.6716-.5076-.47561.7015-.098.3137-.61109.3138.61109.7015.098-.5076.47561.1198.6716-.6275-.31711Z"
		clip-rule="evenodd" />
</svg>