<svg xmlns="http://www.w3.org/2000/svg" width="29" height="29" fill="none">
	<g fill-rule="evenodd" clip-path="url(#a)" clip-rule="evenodd">
		<path fill="#E94B35"
			d="M28.1757 19.3345c-1.9906 5.6321-7.3619 9.6673-13.6757 9.6673-6.3138 0-11.68512-4.0352-13.675781-9.6673H28.1757Z" />
		<path fill="#005AA9"
			d="M28.1767 19.3345c.5343-1.5119.8251-3.1388.8251-4.8336 0-1.6949-.2908-3.3218-.8251-4.83366H.825128C.290763 11.1791 0 12.806 0 14.5009c0 1.6948.290763 3.3217.825128 4.8336H28.1767Z" />
		<path fill="#fff"
			d="M28.3515 9.66726C26.3609 4.03515 20.9895 0 14.6758 0 8.36198 0 2.99066 4.03515 1 9.66726h27.3515Z" />
	</g>
	<defs>
		<clipPath id="a">
			<path fill="#fff" d="M0 0h29.0018v29.0018H0z" />
		</clipPath>
	</defs>
</svg>