<svg xmlns="http://www.w3.org/2000/svg" width="29" height="29" fill="none">
	<circle cx="14.5009" cy="14.5009" r="14.5009" fill="#fff" transform="matrix(1 0 0 -1 0 29.0017)" />
	<g clip-path="url(#a)">
		<path fill="#0D132F" fill-rule="evenodd"
			d="m23.0914 20.4045-.6679-.4505-1.2613 1.8701.6678.4505 1.2614-1.8701Zm-.9349-.6306-.6679-.4505-1.2614 1.8701.6679.4505 1.2614-1.8701Zm-.9351-.6309-.6679-.4505-1.2614 1.8701.6679.4505 1.2614-1.8701Zm3.3118-.8757-.6679-.4505-1.2613 1.87.6678.4505 1.2614-1.87Zm-.9352-.6306-.6679-.4505-1.2613 1.87.6678.4505 1.2614-1.87Zm-.9351-.6309-.6679-.4505-1.2613 1.87.6678.4505 1.2614-1.87ZM7.17188 22.2747l.66787-.4505-2.70293-4.0072-.66788.4505 2.70294 4.0072Zm.93495-.6308.66788-.4505-1.26137-1.8701-.66788.4505 1.26137 1.8701Zm.9351-.6306.66788-.4505-2.70293-4.0073-.66788.4505 2.70293 4.0073Zm-2.37665-1.5064.66788-.4504-1.26137-1.8701-.66788.4505 1.26137 1.87Zm-2.19653-8.7725.66788.4505 2.70293-4.0073-.66788-.45049-2.70293 4.00729Zm.93502.6306.66787.4505 2.70294-4.00723-.66788-.45049L5.40377 11.365Zm.9351.6306.66788.4505 2.70293-4.00723-.66788-.45049-2.70293 4.00722Zm15.65533.4514.6679-.4505-1.2614-1.8701-.6679.4505 1.2614 1.8701Zm.9349-.6305.6679-.4505-2.703-4.00725-.6678.45049 2.7029 4.00726Zm.9351-.6306.6679-.4505-1.2614-1.87004-.6679.45048 1.2614 1.87006Zm-3.3118-.876.6679-.45053-1.2614-1.87006-.6678.45049 1.2613 1.8701Zm1.8701-1.26124.6679-.45049-1.2614-1.87005-.6679.45049 1.2614 1.87005Z"
			clip-rule="evenodd" />
		<circle cx="14.4996" cy="14.5008" r="4.83363" fill="#E94B35" />
		<path fill="#005AA9" fill-rule="evenodd"
			d="M18.577 17.0974c-1.4026 2.2446-4.3748 2.9174-6.6387 1.5027-2.26392-1.4146-2.96218-4.381-1.5596-6.6255-.70131 1.1222-.3522 2.6054.7798 3.3127 1.1319.7074 2.618.371 3.3193-.7513.7013-1.1223 2.1874-1.4587 3.3194-.7513 1.1319.7073 1.481 2.1905.7798 3.3127 0 0 .7012-1.1222 0 0Z"
			clip-rule="evenodd" />
	</g>
	<defs>
		<clipPath id="a">
			<path fill="#fff" d="M4.34961 6.60596h20.3013v15.7899H4.34961z" />
		</clipPath>
	</defs>
</svg>