<svg xmlns="http://www.w3.org/2000/svg" width="29" height="29" fill="none">
	<g fill-rule="evenodd" clip-path="url(#a)" clip-rule="evenodd">
		<path fill="#E94B35"
			d="M14.5009 0c8.0086 0 14.5009 6.49227 14.5009 14.5009 0 8.0086-6.4923 14.5009-14.5009 14.5009C6.49227 29.0018 0 22.5095 0 14.5009h14.5009V0Z" />
		<path fill="#005AA9" d="M14.5009 0C6.49227 0 0 6.49227 0 14.5009h14.5009V0Z" />
		<path fill="#fff"
			d="m9.31383 10.9882-.61301 2.5459-.61301-2.5459L6.284 12.8865l.74205-2.5113-2.51128.7421 1.89827-1.80384-2.54585-.61301 2.54585-.61301-1.89827-1.8038 2.51128.74204L6.284 4.51441l1.80381 1.89827.61301-2.54586.61301 2.54586 1.80377-1.89827-.742 2.51127 2.5113-.74204-1.8983 1.8038 2.5458.61301-2.5458.61301 1.8983 1.80384-2.5113-.7421.742 2.5113-1.80377-1.8983Zm-.59641.013c1.27369 0 2.30618-1.0325 2.30618-2.30618 0-1.27369-1.03249-2.30622-2.30618-2.30622-1.27368 0-2.30621 1.03253-2.30621 2.30622 0 1.27368 1.03253 2.30618 2.30621 2.30618Zm.00003-.3076c1.10386 0 1.99875-.89486 1.99875-1.99872s-.89489-1.99872-1.99875-1.99872-1.99872.89486-1.99872 1.99872.89486 1.99872 1.99872 1.99872Z" />
	</g>
	<defs>
		<clipPath id="a">
			<path fill="#fff" d="M0 0h29.0018v29.0018H0z" />
		</clipPath>
	</defs>
</svg>