<svg xmlns="http://www.w3.org/2000/svg" width="24" height="24" fill="none">
	<path fill="#9399A7" fill-rule="evenodd"
		d="M12 22c-4.08 0-6.475-.686-7.894-2.1C2.687 18.484 2 16.1 2 12.033s.687-6.47 2.11-7.903C5.53 2.701 7.923 2 12 2s6.47.701 7.89 2.131C21.314 5.563 22 7.968 22 12.034c0 4.067-.687 6.451-2.106 7.865C18.475 21.314 16.081 22 12 22Zm0 1C3.733 23 1 20.275 1 12.034S3.733 1 12 1s11 2.793 11 11.034S20.267 23 12 23ZM9.4 10.836c-.69251-.6971-1.0802-1.64041-1.078-2.623 0-1.037.419-1.968 1.079-2.623.33931-.34437.7436-.61802 1.1893-.80512.4458-.18709.9243-.28392 1.4077-.28488 1.016 0 1.938.423 2.598 1.09.6909.69817 1.0785 1.64075 1.0785 2.623 0 .98225-.3876 1.9248-1.0785 2.623-.34.3437-.7445.6169-1.1904.8039-.4458.1871-.9241.2843-1.4076.2861-.4833-.0019-.9615-.0992-1.4071-.2863-.4456-.187-.84999-.4601-1.1899-.8037H9.4Zm6.484 1.1 1.079 1.492c.063.074.052.17-.084.233-.911.761-1.969 1.248-3.069 1.513l2.284 4.061c.063.128-.01.265-.147.265h-2.231c-.0349-.0009-.0687-.0125-.0968-.0332-.0281-.0208-.0491-.0497-.0602-.0828l-1.592-3.597-1.592 3.597c-.0094.0341-.03.0641-.0584.0851-.0285.0211-.0632.0319-.0986.0309H7.987c-.126 0-.21-.148-.147-.265l2.283-4.061c-1.12304-.2691-2.17165-.7861-3.069-1.513-.03072-.03-.04964-.07-.05331-.1128-.00367-.0428.00815-.0854.03331-.1202l1.078-1.492c.03308-.0358.07847-.0578.12707-.0615.0486-.0037.0968.0111.13493.0415 1.027.877 2.273 1.449 3.624 1.449s2.608-.572 3.624-1.45c.0179-.0174.0392-.0308.0627-.0392.0235-.0084.0485-.0117.0733-.0096.0249.0021.049.0095.0707.0217.0217.0122.0406.029.0553.0491v-.001Zm-5.551-3.734c0 .466.188.889.492 1.196.304.307.723.497 1.184.497.46 0 .88-.19 1.183-.497.3155-.31771.4925-.74727.4925-1.195 0-.44773-.177-.87729-.4925-1.195-.1543-.15729-.3384-.28231-.5415-.36781-.2031-.08549-.4211-.12975-.6415-.13019-.461 0-.88.19-1.184.497-.293.307-.492.73-.492 1.195Z"
		clip-rule="evenodd" />
</svg>