<svg xmlns="http://www.w3.org/2000/svg" width="24" height="24" fill="none">
	<g clip-path="url(#a)" clip-rule="evenodd">
		<path stroke="#9399A7"
			d="M12 22.5c7.991 0 10.5-2.501 10.5-10.466C22.5 4.047 19.97 1.5 12 1.5 4.03 1.5 1.5 4.048 1.5 12.034 1.5 20 4.009 22.5 12 22.5Z" />
		<path fill="#9399A7" fill-rule="evenodd"
			d="m7.39364 13.522-2.262-.786c-.1001-.0348-.18704-.0996-.24902-.1856-.06199-.0859-.096-.1889-.09742-.2948-.00142-.106.02982-.2098.08948-.2974.05966-.0876.14483-.1547.24396-.1922l11.32696-4.29c.1244-.04704.2592-.05955.3901-.03621.1309.02334.2531.08167.3536.1688.1004.08713.1754.19982.217.32612.0417.1263.0483.26151.0193.39129l-1.963 8.917c-.0299.1354-.0931.2612-.1838.3661-.0908.1049-.2061.1855-.3358.2347-.1296.0492-.2695.0654-.4069.0471-.1375-.0183-.2682-.0705-.3805-.1519l-3.893-2.836c-.058-.0422-.106-.0966-.1408-.1593-.0348-.0627-.0554-.1323-.0604-.2039-.0051-.0715.0056-.1433.0312-.2103.0256-.067.0655-.1276.117-.1775l3.988-3.864c.18-.175-.045-.461-.257-.327L8.53864 13.39c-.16846.1071-.35897.1747-.55726.1978-.19829.023-.39922-.0001-.58774-.0658Z" />
	</g>
	<defs>
		<clipPath id="a">
			<path fill="#fff" d="M0 0h24v24H0z" />
		</clipPath>
	</defs>
</svg>