<svg xmlns="http://www.w3.org/2000/svg" width="24" height="24" fill="none">
	<g clip-path="url(#a)" clip-rule="evenodd">
		<path stroke="#9399A7"
			d="M12 22.5c7.991 0 10.5-2.501 10.5-10.466C22.5 4.047 19.97 1.5 12 1.5 4.03 1.5 1.5 4.048 1.5 12.034 1.5 20 4.009 22.5 12 22.5Z" />
		<path fill="#9399A7" fill-rule="evenodd"
			d="M12.05 7c.484.001 4.396.019 5.42.299.2988.08363.5704.24433.7875.466.2171.22168.3721.49653.4495.797.258.98.289 2.898.293 3.344v.188c-.004.446-.035 2.364-.293 3.345-.0776.3004-.2327.5751-.4497.7968-.2171.2216-.4886.3824-.7873.4662-.956.26-4.427.293-5.28.297h-.38c-.853-.004-4.324-.036-5.28-.297-.29861-.084-.56998-.2448-.78703-.4664-.21706-.2216-.3722-.4963-.44997-.7966-.27-1.026-.291-3.075-.293-3.396v-.086c.002-.321.023-2.37.293-3.395.16-.615.635-1.1 1.237-1.263C7.554 7.019 11.466 7 11.95 7h.1ZM10 9.5v5l4.5-2.5L10 9.5Z" />
	</g>
	<defs>
		<clipPath id="a">
			<path fill="#fff" d="M0 0h24v24H0z" />
		</clipPath>
	</defs>
</svg>