<svg width="24" height="25" viewBox="0 0 24 25" fill="none" xmlns="http://www.w3.org/2000/svg">
<path d="M12.0137 2.4989C6.49067 2.4989 2.01367 6.97589 2.01367 12.4989C2.01367 18.0219 6.49067 22.4989 12.0137 22.4989C17.5367 22.4989 22.0137 18.0219 22.0137 12.4989C22.0137 6.97589 17.5367 2.4989 12.0137 2.4989ZM16.0137 9.49889C16.2697 9.49889 16.5367 9.5849 16.7327 9.7799C17.1227 10.1709 17.1227 10.8269 16.7327 11.2179L12.9827 14.9369C11.8317 16.0869 10.0727 15.9149 9.16968 14.5609L8.16968 13.0609C7.86368 12.6019 7.99166 11.9619 8.45166 11.6549C8.91066 11.3489 9.55067 11.4769 9.85767 11.9369L10.8577 13.4369C11.0597 13.7399 11.3187 13.7879 11.5757 13.5299L15.2947 9.7799C15.4907 9.5849 15.7577 9.49889 16.0137 9.49889Z" fill="url(#paint0_linear_1_9199)"/>
<defs>
<linearGradient id="paint0_linear_1_9199" x1="2.01367" y1="12.4989" x2="22.0137" y2="12.4989" gradientUnits="userSpaceOnUse">
<stop stop-color="#F0A151"/>
<stop offset="1" stop-color="#FB8F21"/>
</linearGradient>
</defs>
</svg>
