<svg xmlns="http://www.w3.org/2000/svg" width="60" height="60" fill="none">
	<path fill="url(#a)"
		d="M22.4205 6.13883c-3.545 1.1225-6.6025 2.96003-9.2975 5.46757-.8325.7775-1.0874 2.0449-.5474 3.0474 2.0025 3.7025-.0926 7.6626-4.60758 7.8901-1.1075.0575-2.08497.8749-2.34497 1.9524-.4475 1.8625-.625 3.4225-.625 5.47 0 1.7175.18498 3.66.54748 5.39.225 1.08 1.16502 1.8575 2.26502 1.955 4.54495.3925 6.79505 3.8575 4.76505 8.28-.45.9825-.2451 2.1575.5474 2.89 2.655 2.4575 5.705 4.1875 9.2975 5.3125 1.025.3225 2.1825-.065 2.8125-.9375 2.78-3.845 6.8125-3.86 9.4525 0 .6225.91 1.7625 1.3475 2.8125 1.015 3.4675-1.09 6.6975-2.9475 9.375-5.39.825-.75 1.0425-1.9675.5475-2.9675-2.08-4.1975.3126-8.0525 4.6076-8.125 1.14-.02 2.155-.77 2.4225-1.875.4325-1.7925.5474-3.355.5474-5.5475 0-1.885-.2225-3.7424-.625-5.5475-.255-1.1399-1.2524-1.95-2.4224-1.9525-4.2275-.0075-6.5976-4.1625-4.5301-7.8125.575-1.0175.3951-2.2624-.4699-3.0474-2.725-2.47504-6.0476-4.40757-9.5301-5.46757-1.07-.325-2.2075.07501-2.8125 1.01501-2.415 3.74996-6.925 3.81756-9.2975.07752-.6075-.9575-1.81-1.43753-2.89-1.09253ZM29.998 19.9663c5.5225 0 10 4.4775 10 10s-4.4775 10-10 10-10-4.4775-10-10 4.4775-10 10-10Z" />
	<defs>
		<linearGradient id="a" x1="4.99805" x2="54.998" y1="30.0047" y2="30.0047" gradientUnits="userSpaceOnUse">
			<stop stop-color="#F0A151" />
			<stop offset="1" stop-color="#FB8F21" />
		</linearGradient>
	</defs>
</svg>