<svg xmlns="http://www.w3.org/2000/svg" width="60" height="60" fill="none">
	<path fill="url(#a)"
		d="M29.9967 5.0354c-3.2325 0-6.8775 9.875-7.345 22.5h14.69c-.4675-12.6225-4.1125-22.5-7.345-22.5Zm-7.89 1.25c-9.2175 3.07249-16.15748 11.5025-17.03248 21.25H17.6517c.2775-8.5975 1.83-16.2225 4.455-21.25Zm15.78 0c2.625 5.0275 4.1775 12.6525 4.455 21.25h12.5c-.905-9.8625-7.6475-18.12251-16.955-21.25Zm-32.73497 26.25c.9 10.0174 7.85497 18.2249 17.03247 21.2499-2.6225-5.0275-4.255-12.6524-4.5325-21.2499H5.15173Zm17.49997 0c.4675 12.6224 4.1125 22.4999 7.345 22.4999s6.8775-9.875 7.345-22.4999h-14.69Zm19.69 0c-.2775 8.5975-1.91 16.2224-4.5325 21.2499 9.4275-3.2075 16.1125-11.5499 17.0325-21.2499h-12.5Z" />
	<defs>
		<linearGradient id="a" x1="5.07422" x2="54.8417" y1="30.0354" y2="30.0354" gradientUnits="userSpaceOnUse">
			<stop stop-color="#F0A151" />
			<stop offset="1" stop-color="#FB8F21" />
		</linearGradient>
	</defs>
</svg>