<svg xmlns="http://www.w3.org/2000/svg" width="238" height="25" fill="none">
	<path fill="#005AA9"
		d="M16.236 19.748H7.392L5.808 24.5H.858L9.24.871999h5.379L22.803 24.5h-5.016l-1.551-4.752Zm-1.32-4.059-3.069-9.24-3.102 9.24h6.171Zm15.8065.924V24.5h-4.851V.871999h4.851V11.267l9.24-10.395001h5.742L36.2665 11.036 46.6945 24.5h-5.808l-7.722-10.428-2.442 2.541ZM66.5254 8h-4.554c-.154-2.398-1.804-3.597-4.95-3.597-1.254 0-2.255.253-3.003.759-.726.506-1.089 1.188-1.089 2.046 0 .836.308 1.463.924 1.881.616.418 1.804.792 3.564 1.122l3.696.693c2.178.418 3.762 1.133 4.752 2.145.99 1.012 1.485 2.442 1.485 4.29 0 2.53-.968 4.455-2.904 5.775-1.672 1.166-3.927 1.749-6.765 1.749-3.234 0-5.698-.748-7.392-2.244-1.474-1.298-2.277-3.102-2.409-5.412h4.719c.176 2.508 1.947 3.762 5.313 3.762 1.496 0 2.662-.264 3.498-.792.858-.55 1.287-1.298 1.287-2.244 0-.924-.341-1.639-1.023-2.145-.66-.506-1.804-.913-3.432-1.221l-3.3-.627c-2.398-.44-4.114-1.133-5.148-2.079-1.012-.968-1.518-2.354-1.518-4.158 0-2.442.891-4.29 2.673-5.544 1.54-1.1 3.63-1.650002 6.27-1.650002 3.19 0 5.588.726002 7.194 2.178002 1.386 1.276 2.09 3.047 2.112 5.313Zm18.192 11.748h-8.844l-1.584 4.752h-4.95L77.7214.871999h5.379L91.2844 24.5h-5.016l-1.551-4.752Zm-1.32-4.059-3.069-9.24-3.102 9.24h6.171Zm21.7796.066V24.5h-4.851v-8.745L92.4719.871999h5.412L102.702 11.3 107.223.871999h5.412L105.177 15.755Zm36.999-4.125V24.5h-2.904l-.594-3.366c-1.738 2.486-4.103 3.729-7.095 3.729-3.476 0-6.259-1.276-8.349-3.828-1.826-2.244-2.739-5.016-2.739-8.316 0-3.894 1.188-6.974 3.564-9.24 2.068-1.98 4.697-2.970002 7.887-2.970002 3.036 0 5.5.803002 7.392 2.409002 1.628 1.364 2.574 3.168 2.838 5.412h-4.554c-.902-2.442-2.794-3.663-5.676-3.663-2.2 0-3.883.792-5.049 2.376-1.034 1.408-1.551 3.267-1.551 5.577 0 2.552.715 4.587 2.145 6.105 1.232 1.32 2.772 1.98 4.62 1.98 1.958 0 3.564-.715 4.818-2.145.638-.748 1.023-1.705 1.155-2.871h-5.379V11.63h9.471Zm9.493 3.498V24.5h-4.851V.871999h12.672c2.002 0 3.531.539001 4.587 1.617001 1.188 1.21 1.782 2.805 1.782 4.785 0 2.86-1.342 4.807-4.026 5.841 1.518.594 2.442 1.331 2.772 2.211.242.638.418 2.761.528 6.369.022.902.363 1.54 1.023 1.914v.891h-5.214c-.484-.902-.726-2.233-.726-3.993 0-.44.011-.979.033-1.617v-.957c0-1.87-1.001-2.805-3.003-2.805h-5.577Zm0-4.059h5.874c1.232 0 2.09-.198 2.574-.594.594-.506.891-1.342.891-2.508 0-1.122-.297-1.925-.891-2.409-.506-.418-1.364-.627-2.574-.627h-5.874v6.138ZM180.381.508998c3.344 0 6.028 1.067002 8.052 3.201002 2.2 2.31 3.3 5.302 3.3 8.976 0 3.63-1.1 6.622-3.3 8.976-2.002 2.134-4.686 3.201-8.052 3.201-3.388 0-6.083-1.067-8.085-3.201-2.2-2.354-3.3-5.346-3.3-8.976 0-3.63 1.1-6.622 3.3-8.976 2.024-2.134 4.719-3.201002 8.085-3.201002Zm0 4.158002c-2.112 0-3.773.825-4.983 2.475-1.034 1.43-1.551 3.278-1.551 5.544 0 2.596.671 4.631 2.013 6.105 1.166 1.276 2.673 1.914 4.521 1.914 2.112 0 3.762-.825 4.95-2.475 1.034-1.43 1.551-3.278 1.551-5.544 0-2.596-.671-4.631-2.013-6.105-1.166-1.276-2.662-1.914-4.488-1.914ZM209.308.871999h4.884V16.514c0 2.574-.77 4.554-2.31 5.94-1.76 1.606-4.114 2.409-7.062 2.409-2.948 0-5.302-.803-7.062-2.409-1.54-1.386-2.31-3.366-2.31-5.94V.871999h4.851V16.514c0 2.794 1.507 4.191 4.521 4.191 2.992 0 4.488-1.397 4.488-4.191V.871999ZM223.856 16.085V24.5h-4.851V.871999h10.428c2.64 0 4.609.715001 5.907 2.145001 1.144 1.254 1.716 2.981 1.716 5.181 0 2.574-.726 4.576-2.178 6.006-1.276 1.254-2.926 1.881-4.95 1.881h-6.072Zm0-4.059h4.521c2.552 0 3.828-1.177 3.828-3.531 0-2.376-1.276-3.564-3.828-3.564h-4.521v7.095Z" />
</svg>