<svg width="56" height="56" viewBox="0 0 56 56" fill="none" xmlns="http://www.w3.org/2000/svg">
<circle cx="28" cy="28" r="28" fill="#005AA9"/>
<path d="M35.4169 22.7903C36.4469 23.8843 36.9999 25.1113 36.9999 27.1003C36.9999 30.6003 34.5439 33.7373 30.9699 35.2883L30.0769 33.9103C33.4119 32.1063 34.0639 29.7653 34.3249 28.2893C33.7879 28.5673 33.0849 28.6643 32.3949 28.6003C30.5909 28.4333 29.1689 26.9523 29.1689 25.1113C29.1689 24.1831 29.5377 23.2928 30.194 22.6365C30.8504 21.9801 31.7407 21.6113 32.6689 21.6113C33.7419 21.6113 34.7689 22.1013 35.4169 22.7903ZM25.4169 22.7903C26.4469 23.8843 26.9999 25.1113 26.9999 27.1003C26.9999 30.6003 24.5439 33.7373 20.9699 35.2883L20.0769 33.9103C23.4119 32.1063 24.0639 29.7653 24.3239 28.2893C23.7869 28.5673 23.0839 28.6643 22.3949 28.6003C20.5909 28.4343 19.1699 26.9533 19.1699 25.1113C19.1699 24.1831 19.5387 23.2928 20.195 22.6365C20.8514 21.9801 21.7417 21.6113 22.6699 21.6113C23.7429 21.6113 24.7699 22.1013 25.4179 22.7903" fill="white"/>
</svg>
