<svg style="display: none;" xmlns="http://www.w3.org/2000/svg">
	<symbol id="phone-fill" viewBox="0 0 18 18">
		<path
			d="M5.19568 2.19727C3.92968 2.19727 2.24219 3.88476 2.24219 5.15076C2.24219 6.78126 3.92969 9.79102 5.61719 11.4785C5.79869 11.66 6.27944 12.1408 6.46094 12.3223C8.14844 14.0098 11.1582 15.6973 12.7887 15.6973C14.0547 15.6973 15.7422 14.0098 15.7422 12.7438C15.7422 11.4785 14.0547 9.79102 12.7887 9.79102C12.3672 9.79102 10.8409 10.664 10.6797 10.6348C9.33419 10.3918 7.58594 8.60002 7.30469 7.25977C7.26569 7.07302 8.14844 5.57226 8.14844 5.15076C8.14844 3.88476 6.46093 2.19727 5.19568 2.19727Z"
			fill="inherit" />
	</symbol>
	<symbol id="email-fill" viewBox="0 0 18 18">
		<path
			d="M4.46326 2.99829C2.93776 2.99829 1.74377 3.38379 1.53302 4.85003C1.46552 5.31953 1.61401 5.78154 1.95526 6.11529C2.12476 6.28104 2.30402 6.47829 2.54102 6.67779C3.13577 7.17954 3.89402 7.74354 4.60352 8.24829C6.55577 9.63578 8.09703 10.4983 9.00978 10.4983C9.92253 10.4983 11.4638 9.63578 13.416 8.24829C14.1263 7.74354 14.8845 7.17879 15.4785 6.67779C15.7155 6.47829 15.8948 6.28179 16.0643 6.11529C16.4055 5.78154 16.554 5.31953 16.4865 4.85003C16.2758 3.38379 15.0818 2.99829 13.5563 2.99829H4.46326ZM1.50977 7.61529V11.9983C1.50977 13.655 2.85302 14.9983 4.50977 14.9983H13.5098C15.1665 14.9983 16.5098 13.655 16.5098 11.9983V7.61529C15.8948 8.19954 15.2078 8.80254 14.2365 9.49029C12.1095 10.9963 10.1993 11.9983 9.00978 11.9983C7.82028 11.9983 5.91003 10.9963 3.78302 9.49029C2.81102 8.80254 2.12477 8.19954 1.50977 7.61529Z"
			fill="inherit" />
	</symbol>
	<symbol id="person-fill" viewBox="0 0 18 18">
		<path
			d="M8.99805 1.46484C6.927 1.46484 5.24805 3.14379 5.24805 5.21484C5.24805 7.28589 6.927 8.96484 8.99805 8.96484C11.0691 8.96484 12.748 7.28589 12.748 5.21484C12.748 3.14379 11.0691 1.46484 8.99805 1.46484ZM6.34965 9.94922C4.38892 10.4851 2.99805 12.19 2.99805 14.2148V15.7148C2.99805 16.1291 3.33382 16.4648 3.74805 16.4648H14.248C14.6623 16.4648 14.998 16.1291 14.998 15.7148V14.2148C14.998 12.19 13.6072 10.4851 11.6464 9.94922C11.4784 9.90324 11.3132 9.92447 11.1543 9.99609C10.4677 10.3055 9.73672 10.4648 8.99805 10.4648C8.25937 10.4648 7.52842 10.3055 6.8418 9.99609C6.68287 9.92447 6.51772 9.90324 6.34965 9.94922Z"
			fill="inherit" />
	</symbol>
	<symbol id="burger" viewBox="0 0 14 9">
		<path
			d="M0.998698 0.0688477C0.630698 0.0688477 0.332031 0.367514 0.332031 0.735514C0.332031 1.10351 0.630698 1.40218 0.998698 1.40218H12.9987C13.3667 1.40218 13.6654 1.10351 13.6654 0.735514C13.6654 0.367514 13.3667 0.0688477 12.9987 0.0688477H0.998698ZM0.998698 3.40218C0.630698 3.40218 0.332031 3.70085 0.332031 4.06885C0.332031 4.43685 0.630698 4.73551 0.998698 4.73551H12.9987C13.3667 4.73551 13.6654 4.43685 13.6654 4.06885C13.6654 3.70085 13.3667 3.40218 12.9987 3.40218H0.998698ZM0.998698 6.73551C0.630698 6.73551 0.332031 7.03418 0.332031 7.40218C0.332031 7.77018 0.630698 8.06885 0.998698 8.06885H12.9987C13.3667 8.06885 13.6654 7.77018 13.6654 7.40218C13.6654 7.03418 13.3667 6.73551 12.9987 6.73551H0.998698Z"
			fill="inherit" />
	</symbol>
	<symbol id="search" viewBox="0 0 20 20">
		<path
			d="M8.3444 1.62744C4.66248 1.62744 1.67773 4.61245 1.67773 8.29412C1.67773 11.9758 4.66248 14.9608 8.3444 14.9608C9.87498 14.9608 11.3257 14.435 12.451 13.5683L16.0787 17.2266C16.4042 17.5516 16.9512 17.5516 17.2767 17.2266C17.6022 16.9008 17.6022 16.3541 17.2767 16.0283L13.6238 12.395C14.4911 11.27 15.0111 9.82496 15.0111 8.29412C15.0111 4.61245 12.0263 1.62744 8.3444 1.62744ZM8.3444 3.29411C11.1058 3.29411 13.3444 5.53245 13.3444 8.29412C13.3444 11.0558 11.1058 13.2941 8.3444 13.2941C5.58298 13.2941 3.3444 11.0558 3.3444 8.29412C3.3444 5.53245 5.58298 3.29411 8.3444 3.29411Z"
			fill="inherit" />
	</symbol>
	<symbol id="fire" viewBox="0 0 20 21">
		<path
			d="M2.90234 13.8565C2.90234 17.255 5.68127 19.6575 9.59877 19.6575C14.0434 19.6575 17.0988 16.7861 17.0988 12.0654C17.0988 4.69931 10.6366 1.34253 5.92413 1.34253C5.17913 1.34253 4.81092 1.7111 4.81092 2.13789C4.81092 2.48074 4.99484 2.76574 5.27127 3.15931C5.94092 4.07967 7.07913 5.41896 7.07913 7.10146C7.07913 7.24396 7.07092 7.3861 7.05413 7.53717C6.58556 6.65789 5.75663 6.0386 4.75234 6.0386C4.4677 6.0386 4.31699 6.2061 4.31699 6.4486C4.31699 6.74146 4.38377 6.9511 4.38377 7.86324C4.38377 9.61289 2.90234 10.7929 2.90234 13.8565ZM9.76627 17.3054C8.09199 17.3054 6.97877 16.2925 6.97877 14.7857C6.97877 13.2036 8.1002 12.6429 8.25127 11.6215C8.25949 11.5379 8.31806 11.5129 8.37663 11.5715C8.7952 11.9315 9.05484 12.3832 9.25556 12.9025C9.29734 12.9943 9.36449 13.0025 9.40627 12.9275C9.86663 12.124 9.9502 10.9268 9.84163 9.42039C9.82484 9.33646 9.88342 9.29467 9.95877 9.32824C11.9427 10.2322 12.9552 12.1993 12.9552 13.9654C12.9552 15.74 11.9091 17.3054 9.76627 17.3054Z"
			fill="inherit" />
	</symbol>
	<symbol id="arrow" viewBox="0 0 13 12">
		<path
			d="M0.0117188 5.9928C0.0117188 5.4408 0.459019 4.9938 1.01072 4.9938C1.48852 4.9938 7.07572 4.9938 8.56572 4.9938L5.59972 1.9968L7.00471 0.591797L11.7187 5.27481C11.9147 5.46981 12.0117 5.7318 12.0117 5.9938C12.0117 6.25481 11.9137 6.51582 11.7187 6.71082L7.00471 11.3938L5.59972 9.9888L8.56572 6.99179C7.07572 6.99179 1.48852 6.99179 1.01072 6.99179C0.459019 6.99179 0.0117188 6.5448 0.0117188 5.9928Z"
			fill="inherit" />
	</symbol>
</svg>